Coordinates
version=1
nRows=19
nColumns=24
inDegrees=yes

Units are S.I. units (second, meters, Newtons, ...)
Angles are in degrees.

endheader
time	pelvis_tilt	pelvis_list	pelvis_rotation	pelvis_tx	pelvis_ty	pelvis_tz	hip_flexion_r	hip_adduction_r	hip_rotation_r	knee_angle_r	ankle_angle_r	subtalar_angle_r	mtp_angle_r	hip_flexion_l	hip_adduction_l	hip_rotation_l	knee_angle_l	ankle_angle_l	subtalar_angle_l	mtp_angle_l	lumbar_extension	lumbar_bending	lumbar_rotation
      3.05500000	     -9.97307471	     -6.03070034	      9.24505565	     -1.73240582	     -0.04159655	      0.61773316	     34.99525097	      2.68278493	     -1.77609489	    -35.14747462	      1.08104068	     -4.02112855	     15.90302183	      9.82341203	     -5.90459215	      3.97873186	    -52.60501502	    -25.01618450	      8.92222589	     18.94874252	      8.38076834	     12.60596611	    -13.48106554
      3.06000000	     -9.86918162	     -6.21617878	      9.01136396	     -1.72533575	     -0.04076872	      0.61799557	     34.36490582	      3.09842818	     -1.69333205	    -34.96336066	      1.50944979	     -3.90872527	     15.95833075	     10.91011406	     -6.04814447	      3.58607577	    -54.45255438	    -24.41589084	      8.68262004	     19.32303096	      8.19089865	     12.94964149	    -12.98312056
      3.06500000	     -9.86822252	     -6.39758702	      8.73738761	     -1.71821508	     -0.03996853	      0.61847322	     33.82488264	      3.56670772	     -1.45308351	    -34.74920025	      1.81706934	     -4.09855604	     15.74484171	     12.08930726	     -6.20133801	      3.21024443	    -56.25052235	    -23.52939142	      8.73455671	     20.02758117	      8.12281732	     13.24729282	    -12.48809641
      3.07000000	     -9.83497625	     -6.50914735	      8.47473127	     -1.71108905	     -0.03899976	      0.61892178	     33.21852673	      3.95830332	     -1.21113332	    -34.51287843	      2.17580846	     -4.19966283	     15.40825215	     13.19122388	     -6.28085288	      2.87850486	    -57.91070223	    -22.72209988	      8.85523263	     21.37311474	      8.01323391	     13.46787492	    -11.99536984
      3.07500000	     -9.73978338	     -6.57656921	      8.27442286	     -1.70396828	     -0.03777942	      0.61926049	     32.50188153	      4.27157686	     -1.00088976	    -34.23168090	      2.61223678	     -4.11603883	     14.81062986	     14.17971004	     -6.29939371	      2.64396233	    -59.32527017	    -22.53879167	      8.75271495	     24.44785309	      7.84448059	     13.64292719	    -11.52696859
      3.08000000	     -9.65935962	     -6.59606513	      8.03889036	     -1.69682320	     -0.03650830	      0.61966806	     31.77191578	      4.55289454	     -0.73341168	    -33.89756694	      2.94629766	     -4.11945079	     14.62943691	     15.16108839	     -6.27413250	      2.40369320	    -60.69761553	    -22.04129848	      8.90583298	     26.85153587	      7.68877935	     13.75707189	    -11.06021649
      3.08500000	     -9.57932066	     -6.59741910	      7.81522694	     -1.68968847	     -0.03517124	      0.62006432	     31.01336327	      4.79814248	     -0.48268006	    -33.51394218	      3.26452545	     -4.10557486	     14.51365452	     16.13183213	     -6.22688350	      2.19625021	    -61.97684851	    -21.57097832	      9.08729984	     29.20200759	      7.53927258	     13.84382690	    -10.60920416
      3.09000000	     -9.49936619	     -6.59016808	      7.60994412	     -1.68255384	     -0.03378472	      0.62045713	     30.22924037	      5.01506480	     -0.25769484	    -33.08576625	      3.56128729	     -4.09731963	     14.42465299	     17.10061669	     -6.16848553	      2.01673056	    -63.17868964	    -21.10909383	      9.25566713	     31.21863002	      7.39967701	     13.90915626	    -10.17545920
      3.09500000	     -9.42885628	     -6.56015286	      7.38855668	     -1.67549516	     -0.03242204	      0.62086510	     29.44570579	      5.20158992	     -0.01708742	    -32.63711723	      3.84216229	     -4.05008321	     14.39418868	     18.08147273	     -6.08937502	      1.82973266	    -64.35721777	    -20.43650807	      9.50898097	     32.39047142	      7.25759987	     13.94477343	     -9.76909424
      3.10000000	     -9.36826126	     -6.59919469	      7.18268637	     -1.66839911	     -0.03103029	      0.62127308	     28.64006277	      5.44518395	      0.19722978	    -32.11039955	      4.06548706	     -4.07023697	     14.25233757	     19.07629221	     -6.08987668	      1.67228937	    -65.41742124	    -20.01859023	      9.53118356	     33.75892943	      7.15290731	     14.04658837	     -9.37805469
      3.10500000	     -9.28349080	     -6.61726787	      7.02450756	     -1.66134774	     -0.02962761	      0.62150616	     27.79246629	      5.61073378	      0.32472096	    -31.55802894	      4.33795147	     -3.91390183	     14.26889742	     20.05953623	     -6.04493337	      1.52158890	    -66.44432971	    -19.57193905	      9.28619474	     34.19092088	      7.03205157	     14.13051581	     -9.04210073
      3.11000000	     -9.24450273	     -6.65861563	      6.81016814	     -1.65426739	     -0.02828451	      0.62197860	     26.97682043	      5.85359267	      0.56228649	    -30.96706707	      4.50500536	     -4.01211745	     14.08292057	     21.06248456	     -6.06159689	      1.35851847	    -67.35386967	    -19.20243266	      9.06487071	     34.84992699	      6.95669310	     14.21829545	     -8.66673627
      3.11500000	     -9.18698100	     -6.68283989	      6.65259696	     -1.64719018	     -0.02692383	      0.62226068	     26.11690917	      6.01901801	      0.71625325	    -30.33812434	      4.73390866	     -3.88672804	     14.08257630	     22.03797720	     -6.02169624	      1.25203624	    -68.18455932	    -18.83902590	      8.67352067	     35.07191429	      6.87808415	     14.28983975	     -8.37357311
      3.12000000	     -9.14947172	     -6.73131051	      6.44050966	     -1.64017302	     -0.02563162	      0.62268341	     25.28153123	      6.24647703	      0.93024303	    -29.69577535	      4.87330767	     -3.95921815	     13.95462119	     23.03404381	     -6.04439354	      1.08073601	    -68.94770516	    -18.58923647	      8.06078725	     35.13466191	      6.79471652	     14.38662817	     -7.98575775
      3.12500000	     -9.11794259	     -6.75117919	      6.21705272	     -1.63311729	     -0.02437115	      0.62313351	     24.43094455	      6.45491615	      1.23149628	    -29.03344917	      5.02898285	     -4.03592730	     13.78618452	     24.00518455	     -6.04392710	      0.89111436	    -69.62369140	    -18.30395372	      7.36085910	     34.93541833	      6.71986178	     14.44882591	     -7.64312215
      3.13000000	     -9.08397679	     -6.79048778	      6.00673634	     -1.62609001	     -0.02315315	      0.62354881	     23.57908949	      6.65787520	      1.45296373	    -28.35850221	      5.15302589	     -4.08412739	     13.65433720	     24.96503826	     -6.05773457	      0.73428640	    -70.21682904	    -18.03688662	      6.59467593	     34.73698209	      6.63983343	     14.52439547	     -7.25869063
      3.13500000	     -9.04219799	     -6.75878893	      5.71739470	     -1.61896882	     -0.02195711	      0.62407308	     22.69678536	      6.83616765	      1.86381105	    -27.69188499	      5.33528722	     -4.16433123	     13.26167115	     25.86264656	     -6.04519127	      0.45240635	    -70.75785564	    -17.52854383	      5.85150133	     33.65259155	      6.54117178	     14.53869586	     -6.84441933
      3.14000000	     -9.02569962	     -6.79187446	      5.52163231	     -1.61194721	     -0.02087081	      0.62452601	     21.85044089	      7.02400318	      2.11337319	    -26.99221452	      5.44454949	     -4.29919196	     13.12556789	     26.81211010	     -6.05812261	      0.31778374	    -71.18283023	    -17.32192668	      4.99808356	     33.50771316	      6.47853681	     14.59755395	     -6.52545658
      3.14500000	     -9.00150795	     -6.66882062	      5.21039561	     -1.60489187	     -0.01974166	      0.62518095	     20.98510780	      7.12479913	      2.64294638	    -26.33290733	      5.51751138	     -4.61065523	     12.74198793	     27.65941304	     -5.96603516	      0.00966431	    -71.50432211	    -16.89979074	      4.15792238	     32.67113162	      6.35709119	     14.49112270	     -6.07926786
